
	<svg xmlns="http://www.w3.org/2000/svg" xmlns:xlink="http://www.w3.org/1999/xlink" version="1.1" width="128" height="128" viewBox="0 0 100 100">


		<defs>
			<g id="background">
<path fill="url(#background-gradient)" stroke="none" d=" M 90.75 23.05 Q 89.5 23.05 88.85 24.15 88.15 25.25 88.85 26.35 97.25 40.2 95.15 56.15 93.05 71.65 81.75 82.6 70.35 93.7 54.9 95.25 32.95 97.55 17.6 81.85 2.2 66.2 4.85 44.2 6.6 30.2 16.15 19.7 25.65 9.1 39.25 5.8 50.55 3 61.7 5.95 62.85 6.3 63.7 5.65 64.6 5 64.6 3.85 64.6 2.25 62.95 1.7 52.55 -1.1 41.6 0.65 25.55 3.3 14.4 14.85 3.1 26.25 0.65 42.4 -2.95 66.9 14 84.5 30.85 102.1 55.2 99.7 72.6 97.9 85.2 85.4 97.95 72.8 99.7 55.35 101.45 38.55 92.75 24.05 92.05 23.05 90.75 23.05 Z"/>
</g><mask id="mask">
<path fill="#FFFFFF" stroke="none" d=" M 82.2 82.15 Q 95.5 68.85 95.5 49.95 95.5 31.1 82.2 17.8 68.85 4.5 50 4.5 31.15 4.5 17.8 17.8 4.5 31.1 4.5 49.95 4.5 68.85 17.8 82.15 31.15 95.45 50 95.45 68.85 95.45 82.2 82.15 Z"/>
</mask>
			
	<linearGradient id="background-gradient" x1="0" y1="0" y2="1" x2="0" >
		<stop stop-color="#000" offset="0%"/>
		<stop stop-color="#000" offset="100%"/>
	</linearGradient>

			
			
			<g transform="translate(-100 -99.99999618530273)" id="picture">
    <path d="M120.266 138.04v1.661c0 5.648 2.658 9.967 5.98 9.967 3.654 11.96 13.289 20.266 23.92 20.266 10.3 0 20.266-8.97 23.92-21.263 3.323 0 5.98-4.319 5.98-9.967v-5.315c.333-1.33 0-2.326 0-3.323v-1.66c0-15.948-12.292-28.24-28.239-28.24-18.604 0-31.561 11.628-31.561 28.24v6.644a4.61 4.61 0 0 0 0 2.99zm56.478-1.329v1.993c0 3.987-1.66 6.645-2.658 6.645h-.332c-.332-.332-.997-.332-1.661 0-.332.332-.997.664-.997.997-2.657 11.627-11.628 20.265-20.93 20.265-9.634 0-18.605-8.305-21.262-19.601 0-.664-.333-.997-.997-.997h-.664c-.333 0-.665 0-.997.333h-.332c-.997 0-2.658-2.658-2.658-6.645v-2.99h5.315c.997 0 1.662-.664 1.662-1.661 0-4.32.664-8.638 1.328-10.631 0-.333.333-.665.333-.997h4.319c5.315 0 8.305-1.993 9.302-4.319 4.319 3.987 12.292 7.309 21.262 7.641.665 3.655 2.99 8.638 3.323 8.97.332.665.996.997 1.329.997h5.315zm-34.884 0h-3.322c-.996 0-1.66.664-1.66 1.661s.664 1.661 1.66 1.661h3.322c.997 0 1.662-.664 1.662-1.66s-.665-1.662-1.662-1.662zm19.934 0h-3.322c-.997 0-1.661.664-1.661 1.661s.664 1.661 1.66 1.661h3.323c.997 0 1.661-.664 1.661-1.66s-.664-1.662-1.661-1.662zM200 197.841l-3.322-12.957c-.665-2.99-2.658-5.316-5.316-6.645l-22.259-11.628c-.332-.332-.997-.332-1.329 0l-.997.997-10.299 26.246-2.657-5.648c.996-1.329 2.99-4.319 2.99-6.977 0-3.986-2.658-8.305-6.645-8.305s-6.644 4.319-6.644 8.305c0 2.658 1.993 5.648 2.99 6.977l-2.99 5.98-10.964-26.578-.997-.997h-1.328l-21.595 10.632c-2.658 1.328-4.651 3.654-5.316 6.644L100 197.508c0 .333 0 .997.332 1.33s.997.996 1.661.996h96.346c.664 0 .997-.332 1.329-.665.332-.332.332-.996.332-1.328z"/>
</g>
			
		</defs>

		

			<use xlink:href="#background" fill="url(#background-gradient)" />

		

			<g mask="url(#mask)">
				<g transform="
				        translate(
                                50 50
)
                            translate(0 0)  scale(0.5)  
                            translate(
                                -50 -50
)">
						<use xlink:href="#picture"   />
				</g>
			</g>

		



	</svg>
