
	<svg xmlns="http://www.w3.org/2000/svg" xmlns:xlink="http://www.w3.org/1999/xlink" version="1.1" width="128" height="128" viewBox="0 0 100 100">


		<defs>
			<g id="background">
<path fill="url(#background-gradient)" stroke="none" d=" M 90.75 23.05 Q 89.5 23.05 88.85 24.15 88.15 25.25 88.85 26.35 97.25 40.2 95.15 56.15 93.05 71.65 81.75 82.6 70.35 93.7 54.9 95.25 32.95 97.55 17.6 81.85 2.2 66.2 4.85 44.2 6.6 30.2 16.15 19.7 25.65 9.1 39.25 5.8 50.55 3 61.7 5.95 62.85 6.3 63.7 5.65 64.6 5 64.6 3.85 64.6 2.25 62.95 1.7 52.55 -1.1 41.6 0.65 25.55 3.3 14.4 14.85 3.1 26.25 0.65 42.4 -2.95 66.9 14 84.5 30.85 102.1 55.2 99.7 72.6 97.9 85.2 85.4 97.95 72.8 99.7 55.35 101.45 38.55 92.75 24.05 92.05 23.05 90.75 23.05 Z"/>
</g><mask id="mask">
<path fill="#FFFFFF" stroke="none" d=" M 82.2 82.15 Q 95.5 68.85 95.5 49.95 95.5 31.1 82.2 17.8 68.85 4.5 50 4.5 31.15 4.5 17.8 17.8 4.5 31.1 4.5 49.95 4.5 68.85 17.8 82.15 31.15 95.45 50 95.45 68.85 95.45 82.2 82.15 Z"/>
</mask>
			
	<linearGradient id="background-gradient" x1="0" y1="0" y2="1" x2="0" >
		<stop stop-color="#F5EC25" offset="0%"/>
		<stop stop-color="#F5EC25" offset="100%"/>
	</linearGradient>

			
			
			<g transform="translate(-100 -100)" id="picture">
    <path fill="#f5ec25" d="M178.125 112.5h-10c-1.25-3.75-4.688-6.25-8.75-6.25h-3.125c0-3.438-2.813-6.25-6.25-6.25s-6.25 2.813-6.25 6.25h-3.125c-4.063 0-7.5 2.5-8.75 6.25h-10c-1.875 0-3.125 1.25-3.125 3.125v81.25c0 1.875 1.25 3.125 3.125 3.125h56.25c1.875 0 3.125-1.25 3.125-3.125v-81.25c0-1.875-1.25-3.125-3.125-3.125zm-31.25-6.25c0-1.563 1.25-3.125 3.125-3.125 1.563 0 3.125 1.25 3.125 3.125h-6.25zm-6.25 3.125h18.75c3.438 0 6.25 2.813 6.25 6.25s-2.813 6.25-6.25 6.25h-18.75c-3.438 0-6.25-2.813-6.25-6.25s2.813-6.25 6.25-6.25zM175 193.75h-50v-75h6.875c1.25 3.75 4.688 6.25 8.75 6.25h18.75c4.063 0 7.5-2.5 8.75-6.25H175v75zm-7.813-62.5h-34.375c-.937 0-1.562.625-1.562 1.563s.625 1.562 1.563 1.562h34.375c.937 0 1.562-.625 1.562-1.563s-.625-1.562-1.563-1.562zm0 46.875h-34.375c-.937 0-1.562.625-1.562 1.563s.625 1.562 1.563 1.562h34.375c.937 0 1.562-.625 1.562-1.563s-.625-1.562-1.563-1.562zm0-9.375h-34.375c-.937 0-1.562.625-1.562 1.563s.625 1.562 1.563 1.562h34.375c.937 0 1.562-.625 1.562-1.563s-.625-1.562-1.563-1.562zm0-9.375h-34.375c-.937 0-1.562.625-1.562 1.563s.625 1.562 1.563 1.562h34.375c.937 0 1.562-.625 1.562-1.563s-.625-1.562-1.563-1.562zm0-9.375h-34.375c-.937 0-1.562.625-1.562 1.563s.625 1.562 1.563 1.562h34.375c.937 0 1.562-.625 1.562-1.563s-.625-1.562-1.563-1.562zm0-9.375h-34.375c-.937 0-1.562.625-1.562 1.563s.625 1.562 1.563 1.562h34.375c.937 0 1.562-.625 1.562-1.563s-.625-1.562-1.563-1.562z"/>
</g>
			
		</defs>

		

			<use xlink:href="#background" fill="url(#background-gradient)" />

		

			<g mask="url(#mask)">
				<g transform="
				        translate(
                                50 50
)
                            translate(0 0)  scale(0.5)  
                            translate(
                                -50 -50
)">
						<use xlink:href="#picture"   />
				</g>
			</g>

		



	</svg>
