
	<svg xmlns="http://www.w3.org/2000/svg" xmlns:xlink="http://www.w3.org/1999/xlink" version="1.1" width="128" height="128" viewBox="0 0 100 100">


		<defs>
			<g id="background">
<path fill="url(#background-gradient)" stroke="none" d=" M 90.75 23.05 Q 89.5 23.05 88.85 24.15 88.15 25.25 88.85 26.35 97.25 40.2 95.15 56.15 93.05 71.65 81.75 82.6 70.35 93.7 54.9 95.25 32.95 97.55 17.6 81.85 2.2 66.2 4.85 44.2 6.6 30.2 16.15 19.7 25.65 9.1 39.25 5.8 50.55 3 61.7 5.95 62.85 6.3 63.7 5.65 64.6 5 64.6 3.85 64.6 2.25 62.95 1.7 52.55 -1.1 41.6 0.65 25.55 3.3 14.4 14.85 3.1 26.25 0.65 42.4 -2.95 66.9 14 84.5 30.85 102.1 55.2 99.7 72.6 97.9 85.2 85.4 97.95 72.8 99.7 55.35 101.45 38.55 92.75 24.05 92.05 23.05 90.75 23.05 Z"/>
</g><mask id="mask">
<path fill="#FFFFFF" stroke="none" d=" M 82.2 82.15 Q 95.5 68.85 95.5 49.95 95.5 31.1 82.2 17.8 68.85 4.5 50 4.5 31.15 4.5 17.8 17.8 4.5 31.1 4.5 49.95 4.5 68.85 17.8 82.15 31.15 95.45 50 95.45 68.85 95.45 82.2 82.15 Z"/>
</mask>
			
	<linearGradient id="background-gradient" x1="0" y1="0" y2="1" x2="0" >
		<stop stop-color="#000" offset="0%"/>
		<stop stop-color="#000" offset="100%"/>
	</linearGradient>

			
			
			<g transform="translate(-100 -100.00000381469727)" id="picture">
    <path d="M106.25 184.688h87.5c1.875 0 3.125-1.25 3.125-3.125 0-24.688-19.375-45-43.75-46.563v-3.438c0-1.875-1.25-3.125-3.125-3.125s-3.125 1.25-3.125 3.125V135c-24.375 1.563-43.75 21.875-43.75 46.563 0 1.875 1.25 3.125 3.125 3.125zm43.75-43.75c21.25 0 38.75 16.562 40.625 37.5h-81.25c1.875-20.938 19.375-37.5 40.625-37.5zm46.875 46.875h-93.75c-1.875 0-3.125 1.25-3.125 3.125s1.25 3.125 3.125 3.125h93.75c1.875 0 3.125-1.25 3.125-3.125s-1.25-3.125-3.125-3.125zm-57.813-37.5c-9.375 0-17.187 7.812-17.187 17.187 0 .938.625 1.563 1.563 1.563S125 168.438 125 167.5c0-7.813 6.25-14.063 14.063-14.063.937 0 1.562-.625 1.562-1.562s-.625-1.563-1.563-1.563zm-4.687-30.938c.313.625.625.938.625 1.563.313.624.313 1.562 0 1.874-.625.626-.625 1.563.313 2.188.312.313.625.313.937.313s.938-.313 1.25-.626c.938-1.25 1.25-3.124.625-5l-.938-1.874c-.312-.313-.625-.938-.625-1.563-.937-2.5 0-5.625 2.188-7.187.625-.626.938-1.563.313-2.188s-1.563-.938-2.188-.313c-3.125 2.5-4.688 6.876-3.125 10.626 0 .937.313 1.562.625 2.187zm9.375 0c.313.625.625.938.625 1.563.313.624.313 1.562 0 1.874-.625.626-.625 1.563.313 2.188.312.313.625.313.937.313s.938-.313 1.25-.626c.938-1.25 1.25-3.124.625-5l-.938-1.874c-.312-.313-.625-.938-.625-1.563-.937-2.5 0-5.625 2.188-7.187.625-.626.938-1.563.313-2.188s-1.563-.938-2.188-.313c-3.125 2.5-4.688 6.876-3.125 10.626 0 .937.313 1.562.625 2.187zm9.375 0c.313.625.625.938.625 1.563.313.624.313 1.562 0 1.874-.625.626-.625 1.563.313 2.188.312.313.625.313.937.313.313 0 .938-.313 1.25-.626.938-1.25 1.25-3.124.625-5l-.938-1.874c-.312-.313-.625-.938-.625-1.563-.937-2.5 0-5.625 2.188-7.187.625-.626.938-1.563.313-2.188-.625-.625-1.563-.938-2.188-.313-3.125 2.5-4.688 6.876-3.125 10.626 0 .937.313 1.562.625 2.187zm9.375 0c.313.625.625.938.625 1.563.313.624.313 1.562 0 1.874-.625.626-.625 1.563.313 2.188.312.313.625.313.937.313.313 0 .938-.313 1.25-.626.938-1.25 1.25-3.124.625-5l-.938-1.874c-.312-.313-.625-.938-.625-1.563-.937-2.5 0-5.625 2.188-7.187.625-.626.938-1.563.313-2.188-.625-.625-1.563-.938-2.188-.313-3.125 2.5-4.688 6.876-3.125 10.626 0 .937.313 1.562.625 2.187z"/>
</g>
			
		</defs>

		

			<use xlink:href="#background" fill="url(#background-gradient)" />

		

			<g mask="url(#mask)">
				<g transform="
				        translate(
                                50 50
)
                            translate(0 0)  scale(0.5)  
                            translate(
                                -50 -50
)">
						<use xlink:href="#picture"   />
				</g>
			</g>

		



	</svg>
