
	<svg xmlns="http://www.w3.org/2000/svg" xmlns:xlink="http://www.w3.org/1999/xlink" version="1.1" width="128" height="128" viewBox="0 0 100 100">


		<defs>
			<g id="background">
<path fill="url(#background-gradient)" stroke="none" d=" M 90.75 23.05 Q 89.5 23.05 88.85 24.15 88.15 25.25 88.85 26.35 97.25 40.2 95.15 56.15 93.05 71.65 81.75 82.6 70.35 93.7 54.9 95.25 32.95 97.55 17.6 81.85 2.2 66.2 4.85 44.2 6.6 30.2 16.15 19.7 25.65 9.1 39.25 5.8 50.55 3 61.7 5.95 62.85 6.3 63.7 5.65 64.6 5 64.6 3.85 64.6 2.25 62.95 1.7 52.55 -1.1 41.6 0.65 25.55 3.3 14.4 14.85 3.1 26.25 0.65 42.4 -2.95 66.9 14 84.5 30.85 102.1 55.2 99.7 72.6 97.9 85.2 85.4 97.95 72.8 99.7 55.35 101.45 38.55 92.75 24.05 92.05 23.05 90.75 23.05 Z"/>
</g><mask id="mask">
<path fill="#FFFFFF" stroke="none" d=" M 82.2 82.15 Q 95.5 68.85 95.5 49.95 95.5 31.1 82.2 17.8 68.85 4.5 50 4.5 31.15 4.5 17.8 17.8 4.5 31.1 4.5 49.95 4.5 68.85 17.8 82.15 31.15 95.45 50 95.45 68.85 95.45 82.2 82.15 Z"/>
</mask>
			
	<linearGradient id="background-gradient" x1="0" y1="0" y2="1" x2="0" >
		<stop stop-color="#000" offset="0%"/>
		<stop stop-color="#000" offset="100%"/>
	</linearGradient>

			
			
			<g transform="scale(1.0000003814698721) translate(-100.00003814697266 -100.00001907348633)" id="picture">
    <path d="M199.071 143.189c-1.238-4.025-4.644-7.43-8.978-8.36-3.406-.928-7.12 0-10.217 1.858a10.672 10.672 0 0 0-3.715 3.716c-2.167-1.858-4.953-3.406-7.74-4.954v-7.12c0-1.858-1.238-3.097-3.096-3.097h-30.96c-1.857 0-3.096 1.239-3.096 3.096v7.121c-3.405 1.548-6.192 3.715-8.668 5.882l-11.146-12.074c-1.238-1.238-3.096-1.238-4.334-.31l-5.573 4.335c-1.238.929-1.548 3.096-.62 4.334l13.004 17.647c-.929 2.167-1.238 4.644-1.238 7.121 0 9.907 5.882 19.195 15.48 25.077v5.883c0 1.857 1.238 3.096 3.095 3.096h37.152c1.858 0 3.096-1.239 3.096-3.096v-5.883c9.288-5.572 14.86-14.55 15.48-24.148 4.334-2.477 7.74-5.573 10.217-9.288 2.167-3.406 2.786-7.43 1.857-10.836zm-91.331-6.811l.929-.929 9.597 10.526c-.619.93-1.238 1.858-1.857 2.477l-8.67-12.074zm59.133 46.75c-.929.618-1.548 1.547-1.548 2.785v4.335h-30.96v-4.644c0-1.239-.619-2.167-1.548-2.787-8.668-4.334-13.932-12.074-13.932-20.433 0-9.288 6.502-17.647 16.719-21.981 1.238-.62 1.857-1.548 1.857-2.787v-6.192h15.48v15.48h-5.263c-.62 0-1.548.62-1.548 1.238l-2.477 15.48c0 .31 0 .93.31 1.239s.62.619 1.238.619h18.576c.31 0 .929-.31 1.239-.62s.31-.928.31-1.238l-2.478-15.48c0-.619-.619-1.238-1.548-1.238h-5.263v-15.48h6.192v6.192c0 1.239.62 2.477 1.858 2.787 10.217 4.334 16.718 12.693 16.718 21.981 0 8.36-5.263 16.1-13.932 20.743zM159.753 150l2.167 12.384h-14.861L149.226 150h10.526zm31.888.929c-1.238 2.167-3.406 4.025-5.573 5.573-.929-4.025-2.786-8.05-5.573-11.455v-.31c.31-.929.93-2.167 2.477-3.096 1.858-1.238 3.715-1.548 5.573-1.238 2.167.619 3.715 2.167 4.334 4.024.93 2.787-.31 5.263-1.238 6.502zm-56.037-29.102c7.74-3.716 20.743-3.716 28.173 0 .62.31 1.239.31 1.548.31 1.239 0 2.167-.62 2.787-1.858.619-1.548 0-3.406-1.548-4.025-3.406-1.548-7.43-2.786-11.765-3.096.929-.929 1.238-2.167 1.238-3.406 0-3.405-2.786-6.192-6.192-6.192s-6.192 2.787-6.192 6.192c0 1.239.31 2.477.93 3.406-4.335.62-8.36 1.548-11.766 3.096-1.238.62-1.857 2.477-1.238 4.025.62 1.548 2.477 2.167 4.025 1.548z"/>
</g>
			
		</defs>

		

			<use xlink:href="#background" fill="url(#background-gradient)" />

		

			<g mask="url(#mask)">
				<g transform="
				        translate(
                                50 50
)
                            translate(0 0)  scale(0.5)  
                            translate(
                                -50 -50
)">
						<use xlink:href="#picture"   />
				</g>
			</g>

		



	</svg>
