
	<svg xmlns="http://www.w3.org/2000/svg" xmlns:xlink="http://www.w3.org/1999/xlink" version="1.1" width="128" height="128" viewBox="0 0 100 100">


		<defs>
			<g id="background">
<path fill="url(#background-gradient)" stroke="none" d=" M 90.75 23.05 Q 89.5 23.05 88.85 24.15 88.15 25.25 88.85 26.35 97.25 40.2 95.15 56.15 93.05 71.65 81.75 82.6 70.35 93.7 54.9 95.25 32.95 97.55 17.6 81.85 2.2 66.2 4.85 44.2 6.6 30.2 16.15 19.7 25.65 9.1 39.25 5.8 50.55 3 61.7 5.95 62.85 6.3 63.7 5.65 64.6 5 64.6 3.85 64.6 2.25 62.95 1.7 52.55 -1.1 41.6 0.65 25.55 3.3 14.4 14.85 3.1 26.25 0.65 42.4 -2.95 66.9 14 84.5 30.85 102.1 55.2 99.7 72.6 97.9 85.2 85.4 97.95 72.8 99.7 55.35 101.45 38.55 92.75 24.05 92.05 23.05 90.75 23.05 Z"/>
</g><mask id="mask">
<path fill="#FFFFFF" stroke="none" d=" M 82.2 82.15 Q 95.5 68.85 95.5 49.95 95.5 31.1 82.2 17.8 68.85 4.5 50 4.5 31.15 4.5 17.8 17.8 4.5 31.1 4.5 49.95 4.5 68.85 17.8 82.15 31.15 95.45 50 95.45 68.85 95.45 82.2 82.15 Z"/>
</mask>
			
	<linearGradient id="background-gradient" x1="0" y1="0" y2="1" x2="0" >
		<stop stop-color="#f92119" offset="0%"/>
		<stop stop-color="#f92119" offset="100%"/>
	</linearGradient>

			
			
			<g transform="translate(-100 -99.99999618530273)" id="picture">
    <path fill="#f92119" d="M141.667 128.5c1 0 1.666-.667 1.666-1.667 0-6.333 10-6.333 10 0 0 4-.333 7-2.666 8.667-4.667 2.667-4 7.667-4 8 0 1 .666 1.333 1.666 1.333h.334c1 0 1.666-1 1.333-1.666 0 0-.333-3 2.667-4.667 4-2.667 4-8 4-11.667 0-5.333-4.334-8.333-8.334-8.333s-8.333 3-8.333 8.333c0 1 .667 1.667 1.667 1.667zM181 166.167l-10.667-3.667c-.666-.333-1.333 0-1.666.333-5.334 5.667-12 9-19.334 9s-14-3.333-19.333-9c-.333-.333-1-.666-1.667-.333l-10.666 3.667C107.667 169.5 100 181.5 100 193.5v3c0 1 .667 1.667 1.667 1.667l96.666.333c.334 0 1-.333 1.334-.333.333-.334.333-.667.333-1.334v-3c0-11.666-8.333-24-19-27.666zm-55-19c3.667 12.333 13.667 21.333 23.667 21.333 10.666 0 20.666-9 24.666-21.333 3.334 0 6-4.334 6-10 0-4.667-1.666-8.334-4.333-9.667v-1c0-13.333-12-25-26-25s-25.667 12-25.667 25.333v.667c-2.666 1.333-4.333 5-4.333 9.667 0 5.666 2.667 10 6 10zm-.333-16.667s.333 0 0 0c.666 0 1 0 1.333-.333.333-.334.667-1 .333-1.334v-2c0-11.666 10.667-21.666 22.667-21.666s22.667 10 22.667 21.666v2c0 .334 0 1 .333 1.334.333.333.667.666 1.333.666h.334c1 .334 2.333 2.667 2.333 6.667s-1.667 6.667-2.667 6.667H174c-.667-.667-1.333-.667-1.667-.667-.333.333-1 .667-1 1-3 11.333-12.333 20.333-21.666 20.333s-18-8.666-21-20.333c0-.667-.334-1-1-1H127c-.333 0-.667 0-1 .333h-.333c-1 0-2.667-2.666-2.667-6.666.333-4 1.667-6.334 2.667-6.667zM150 150.167a1.667 1.667 0 1 1-3.333 0 1.667 1.667 0 1 1 3.333 0z"/>
</g>
			
		</defs>

		

			<use xlink:href="#background" fill="url(#background-gradient)" />

		

			<g mask="url(#mask)">
				<g transform="
				        translate(
                                50 50
)
                            translate(0 0)  scale(0.5)  
                            translate(
                                -50 -50
)">
						<use xlink:href="#picture"   />
				</g>
			</g>

		



	</svg>
